<?xml version="1.0"?>
<svg xmlns="http://www.w3.org/2000/svg" xmlns:xlink="http://www.w3.org/1999/xlink" xmlns:svgjs="http://svgjs.com/svgjs" version="1.1" width="512" height="512" x="0" y="0" viewBox="0 0 64 64" style="enable-background:new 0 0 512 512" xml:space="preserve"><g><g xmlns="http://www.w3.org/2000/svg" id="Consumer"><path d="M61,44H58V40.9a7,7,0,0,0-4.154-6.394L49,32.351V30.908A7.974,7.974,0,0,0,51.226,29H54a2,2,0,0,0,2-2V24.618a3.95,3.95,0,0,0-1.141-6.138A.982.982,0,0,0,55,18V15a5.006,5.006,0,0,0-5-5H34a1,1,0,0,0-.9,1.447L34.882,15,34.1,16.553a1,1,0,0,0,.188,1.154l.8.8A3.986,3.986,0,0,0,37,26c.086,0,.169-.019.255-.024a7.986,7.986,0,0,0,2.088,3.681A7.765,7.765,0,0,0,41,30.893v1.458l-4.846,2.155A7,7,0,0,0,32,40.9V44H27.211a4.926,4.926,0,0,0,1-2.7l.719-9.3H29a3.015,3.015,0,0,0,3-3,3,3,0,0,0-3-3H27.251l.476-2.689a3.039,3.039,0,0,0,.043-.511,2.99,2.99,0,0,0-2.478-2.944,2.989,2.989,0,0,0-3.477,2.43L21.159,26H12.841l-.656-3.712A3,3,0,0,0,6.23,22.8a3.1,3.1,0,0,0,.045.524L6.749,26H5a3.015,3.015,0,0,0-3,3,3,3,0,0,0,3,3h.074l.718,9.277a4.961,4.961,0,0,0,1,2.723H3a1,1,0,0,0-1,1v4a1,1,0,0,0,1,1H5V61a1,1,0,0,0,1,1H58a1,1,0,0,0,1-1V50h2a1,1,0,0,0,1-1V45A1,1,0,0,0,61,44Zm-5-3.1V44H48.8l-1.525-6.854,2.407.8A.983.983,0,0,0,50,38a1,1,0,0,0,.97-.758l.411-1.643,1.653.735A5,5,0,0,1,56,40.9ZM45,32a7.921,7.921,0,0,0,2-.262v.644L45.764,33H44.236L43,32.382v-.644A7.927,7.927,0,0,0,45,32Zm-.783,3.8.4-.8h.764l.4.8L45,36.586Zm.19,2.98a.919.919,0,0,0,1.186,0L46.753,44H43.247Zm5.119-4.009-.234.936-1.582-.527-.368-.736.683-.341ZM52.41,27a7.763,7.763,0,0,0,.337-1.024c.085.006.168.024.253.024a3.939,3.939,0,0,0,1-.142V27ZM53,24V20.414l.376-.376A2,2,0,0,1,53,24ZM50,12a3,3,0,0,1,3,3v2.586L51.586,19h-.145a1,1,0,0,1-.948-.684l-.544-1.632a1,1,0,0,0-.651-.638A.98.98,0,0,0,49,16a1,1,0,0,0-.6.2l-1.866,1.4a7.051,7.051,0,0,1-4.2,1.4H38.414l-2.2-2.2.678-1.356a1,1,0,0,0,0-.894L35.618,12ZM35,22a2,2,0,0,1,1.624-1.962l.376.376V24A2,2,0,0,1,35,22Zm4.031,2.579A4.588,4.588,0,0,1,39,24V21h3.333a9.054,9.054,0,0,0,5.4-1.8l.757-.567.1.316A3,3,0,0,0,51,20.965V24a4.6,4.6,0,0,1-.036.614A5.884,5.884,0,0,1,50.185,27H45v2h3.305a5.888,5.888,0,0,1-.74.42,5.979,5.979,0,0,1-5.143-.006,5.865,5.865,0,0,1-1.665-1.171A5.992,5.992,0,0,1,39.031,24.579Zm2.944,9.527.683.341-.368.736-1.582.527-.234-.936ZM34,40.9a5,5,0,0,1,2.966-4.566l1.653-.735.411,1.643A1,1,0,0,0,40,38a.983.983,0,0,0,.316-.052l2.407-.8L41.2,44H34ZM29,28a1,1,0,0,1,1,1,.978.978,0,0,1-.306.713A.965.965,0,0,1,29,30H26.542l.355-2Zm-5.215-5.368a1,1,0,0,1,.414-.65.966.966,0,0,1,.739-.157.994.994,0,0,1,.832.975,1.044,1.044,0,0,1-.015.177L24.512,30h-2.03ZM20.805,28l-.353,2h-6.9L13.2,28ZM9.072,21.823a.962.962,0,0,1,.729.159,1,1,0,0,1,.414.652L11.518,30H9.488L8.247,22.99a1.109,1.109,0,0,1-.017-.19A1,1,0,0,1,9.072,21.823ZM4,29a.978.978,0,0,1,.306-.713A.965.965,0,0,1,5,28H7.1l.354,2H5A1,1,0,0,1,4,29ZM7.787,41.145,7.08,32H26.92l-.709,9.166A3,3,0,0,1,23.216,44H10.784A3.006,3.006,0,0,1,7.787,41.145ZM57,60H7V50H57Zm3-12H4V46H60Z" fill="#28c2ce" data-original="#000000" style=""/><rect x="41" y="22" width="2" height="2" fill="#28c2ce" data-original="#000000" style=""/><rect x="47" y="22" width="2" height="2" fill="#28c2ce" data-original="#000000" style=""/><rect x="16" y="34" width="2" height="8" fill="#28c2ce" data-original="#000000" style=""/><rect x="21" y="34" width="2" height="8" fill="#28c2ce" data-original="#000000" style=""/><rect x="11" y="34" width="2" height="8" fill="#28c2ce" data-original="#000000" style=""/><path d="M18,14H16a1,1,0,0,1-1-1H13a3,3,0,0,0,3,3v1h2V16a3,3,0,0,0,0-6H16a1,1,0,0,1,0-2h2a1,1,0,0,1,1,1h2a3,3,0,0,0-3-3V5H16V6a3,3,0,0,0,0,6h2a1,1,0,0,1,0,2Z" fill="#28c2ce" data-original="#000000" style=""/><path d="M17,20a9,9,0,1,0-9-9A9.01,9.01,0,0,0,17,20ZM17,4a7,7,0,1,1-7,7A7.008,7.008,0,0,1,17,4Z" fill="#28c2ce" data-original="#000000" style=""/></g></g></svg>
