<?xml version="1.0"?>
<svg xmlns="http://www.w3.org/2000/svg" xmlns:xlink="http://www.w3.org/1999/xlink" xmlns:svgjs="http://svgjs.com/svgjs" version="1.1" width="512" height="512" x="0" y="0" viewBox="0 0 514.195 514.195" style="enable-background:new 0 0 512 512" xml:space="preserve" class=""><g><g xmlns="http://www.w3.org/2000/svg"><path d="m447.123 111.195h-101.025v-22.195c0-49.075-39.925-89-89-89s-89 39.925-89 89v22.195h-101.026c-8.284 0-15 6.716-15 15v343c0 24.813 20.187 45 45 45h320.052c24.813 0 45-20.187 45-45v-343c-.001-8.284-6.717-15-15.001-15zm-249.026-22.195c0-32.533 26.467-59 59-59s59 26.467 59 59v22.195h-118zm234.026 380.195c0 8.271-6.729 15-15 15h-320.051c-8.271 0-15-6.729-15-15v-328h86.025v57c0 8.284 6.716 15 15 15s15-6.716 15-15v-57h118.001v57c0 8.284 6.716 15 15 15s15-6.716 15-15v-57h86.025z" fill="#28c2ce" data-original="#000000" style=""/><path d="m296.26 258.552c-14.81 0-28.777 5.865-39.163 15.702-10.386-9.837-24.353-15.702-39.162-15.702-31.354 0-56.863 25.509-56.863 56.863 0 18.826 12.912 41.689 38.378 67.954 18.401 18.979 39.571 35.71 50.147 41.816 2.321 1.34 4.91 2.01 7.5 2.01 2.589 0 5.18-.67 7.5-2.01 22.689-13.1 88.526-65.552 88.526-109.771 0-31.353-25.509-56.862-56.863-56.862zm-38.932 135.754c-8.964-6.542-23.021-18.082-36.339-31.819-27.759-28.631-29.917-43.268-29.917-47.072 0-14.813 12.051-26.863 26.863-26.863 11.103 0 21.204 6.975 25.133 17.356 2.207 5.832 7.792 9.69 14.028 9.69s11.821-3.858 14.029-9.69c3.93-10.381 14.03-17.356 25.134-17.356 14.813 0 26.863 12.051 26.863 26.863.001 22.029-39.226 60.749-65.794 78.891z" fill="#28c2ce" data-original="#000000" style=""/></g></g></svg>
