<?xml version="1.0"?>
<svg xmlns="http://www.w3.org/2000/svg" xmlns:xlink="http://www.w3.org/1999/xlink" xmlns:svgjs="http://svgjs.com/svgjs" version="1.1" width="512" height="512" x="0" y="0" viewBox="0 0 512 512" style="enable-background:new 0 0 512 512" xml:space="preserve" class=""><g><path xmlns="http://www.w3.org/2000/svg" d="M496,216V184a8,8,0,0,0-8-8H368V96h8a8,8,0,0,0,8-8V56a8,8,0,0,0-8-8h-8V24a8,8,0,0,0-8-8H152a8,8,0,0,0-8,8V48h-8a8,8,0,0,0-8,8V88a8,8,0,0,0,8,8h8v80H24a8,8,0,0,0-8,8v32a8,8,0,0,0,8,8v64a8,8,0,0,0-8,8V424a8,8,0,0,0,8,8v56a8,8,0,0,0,8,8H480a8,8,0,0,0,8-8V432a8,8,0,0,0,8-8V296a8,8,0,0,0-8-8V224A8,8,0,0,0,496,216Zm-16-24v16H368V192Zm0,112v48H424V304ZM424,416V368h56v48Zm-56-48h40v48H368Zm40-16H368V304h40ZM160,32H352V48H160ZM144,64H368V80H144ZM352,96V480H336V200a8,8,0,0,0-8-8H184a8,8,0,0,0-8,8V480H160V96ZM192,384V368H320v16Zm128-32H192V208H320ZM192,400h16v80H192Zm32,0h24v80H224Zm40,0h24v80H264Zm40,0h16v80H304ZM32,416V368H88v48ZM88,304v48H32V304Zm56,48H104V304h40Zm-40,16h40v48H104ZM32,192H144v16H32Zm8,32H144v64H40Zm0,208H144v48H40Zm432,48H368V432H472Zm0-192H368V224H472Z" fill="#28c2ce" data-original="#000000" style="" class=""/><path xmlns="http://www.w3.org/2000/svg" d="M213.251,168.324C224.8,173.274,239.983,176,256,176s31.2-2.726,42.749-7.676C317.239,160.4,320,149.683,320,144s-2.761-16.4-21.251-24.324C287.2,114.726,272.017,112,256,112s-31.2,2.726-42.749,7.676C194.761,127.6,192,138.317,192,144S194.761,160.4,213.251,168.324ZM256,128c29.776,0,48,10.359,48,16s-18.224,16-48,16-48-10.359-48-16S226.224,128,256,128Z" fill="#28c2ce" data-original="#000000" style="" class=""/><path xmlns="http://www.w3.org/2000/svg" d="M216,256h32a8,8,0,0,0,0-16H216a8,8,0,0,0,0,16Z" fill="#28c2ce" data-original="#000000" style="" class=""/><path xmlns="http://www.w3.org/2000/svg" d="M280,256h16a8,8,0,0,0,0-16H280a8,8,0,0,0,0,16Z" fill="#28c2ce" data-original="#000000" style="" class=""/><path xmlns="http://www.w3.org/2000/svg" d="M216,288h80a8,8,0,0,0,0-16H216a8,8,0,0,0,0,16Z" fill="#28c2ce" data-original="#000000" style="" class=""/><path xmlns="http://www.w3.org/2000/svg" d="M216,320h48a8,8,0,0,0,0-16H216a8,8,0,0,0,0,16Z" fill="#28c2ce" data-original="#000000" style="" class=""/></g></svg>
