<?xml version="1.0" encoding="UTF-8" standalone="no"?>
<svg
   xmlns:osb="http://www.openswatchbook.org/uri/2009/osb"
   xmlns:dc="http://purl.org/dc/elements/1.1/"
   xmlns:cc="http://creativecommons.org/ns#"
   xmlns:rdf="http://www.w3.org/1999/02/22-rdf-syntax-ns#"
   xmlns:svg="http://www.w3.org/2000/svg"
   xmlns="http://www.w3.org/2000/svg"
   xmlns:sodipodi="http://sodipodi.sourceforge.net/DTD/sodipodi-0.dtd"
   xmlns:inkscape="http://www.inkscape.org/namespaces/inkscape"
   sodipodi:docname="favicon.svg"
   inkscape:version="1.0 (4035a4fb49, 2020-05-01)"
   id="svg893"
   version="1.1"
   viewBox="0 0 12.329583 19.579166"
   height="19.579166mm"
   width="12.329583mm">
  <defs
     id="defs887">
    <linearGradient
       osb:paint="solid"
       id="linearGradient1546">
      <stop
         id="stop1544"
         offset="0"
         style="stop-color:#00000c;stop-opacity:1;" />
    </linearGradient>
  </defs>
  <sodipodi:namedview
     inkscape:window-maximized="1"
     inkscape:window-y="-8"
     inkscape:window-x="-8"
     inkscape:window-height="1017"
     inkscape:window-width="1920"
     showgrid="false"
     inkscape:document-rotation="0"
     inkscape:current-layer="layer1"
     inkscape:document-units="mm"
     inkscape:cy="39.97864"
     inkscape:cx="36.868911"
     inkscape:zoom="5.6"
     inkscape:pageshadow="2"
     inkscape:pageopacity="0.0"
     borderopacity="1.0"
     bordercolor="#666666"
     pagecolor="#ffffff"
     id="base" />
  <metadata
     id="metadata890">
    <rdf:RDF>
      <cc:Work
         rdf:about="">
        <dc:format>image/svg+xml</dc:format>
        <dc:type
           rdf:resource="http://purl.org/dc/dcmitype/StillImage" />
        <dc:title></dc:title>
      </cc:Work>
    </rdf:RDF>
  </metadata>
  <g
     transform="translate(-103.35381,-107.09955)"
     id="layer1"
     inkscape:groupmode="layer"
     inkscape:label="Calque 1">
    <g
       style="fill:#28c2ce;fill-opacity:1"
       transform="matrix(0.26458333,0,0,0.26458333,66.576723,54.283052)"
       id="g1042">
      <path
         style="fill:#28c2ce;fill-opacity:1"
         id="path1012"
         d="m 167.5,233.4 c -0.3,0.5 -0.6,1 -1.1,1.5 -0.3,0.3 -0.6,0.5 -0.9,0.7 v 31.9 l 2,-3.9 z"
         class="st0" />
      <path
         style="fill:#28c2ce;fill-opacity:1"
         id="path1014"
         d="m 164.1,236.1 c -0.6,0.1 -1.2,0.2 -1.8,0.2 -1.4,0 -2.6,-0.3 -3.4,-0.9 v 31.7 l 3.5,6.7 1.8,-3.5 v -34.2 z"
         class="st0" />
      <g
         style="fill:#28c2ce;fill-opacity:1"
         id="g1040">
        <path
           style="fill:#28c2ce;fill-opacity:1"
           id="path1016"
           d="m 167.5,217.4 v -17 c -0.6,-0.1 -1.3,-0.3 -2,-0.4 v 15.4 c 0.4,0.2 0.8,0.5 1.1,0.8 0.4,0.4 0.7,0.8 0.9,1.2 z"
           class="st0" />
        <path
           style="fill:#28c2ce;fill-opacity:1"
           id="path1018"
           d="m 164.1,214.8 v -14.9 c -0.6,0 -1.2,-0.1 -1.8,-0.1 -1.2,0 -2.3,0.1 -3.5,0.3 v 15.5 c 0.9,-0.6 2.1,-0.9 3.5,-0.9 0.6,-0.2 1.2,-0.1 1.8,0.1 z"
           class="st0" />
        <path
           style="fill:#28c2ce;fill-opacity:1"
           id="path1020"
           d="m 157.3,233.8 c -0.4,-0.6 -0.8,-1.3 -1,-2.1 -0.3,-1.2 -0.5,-3.3 -0.5,-6.3 0,-2.3 0.1,-4.2 0.4,-5.6 0.2,-1 0.6,-1.9 1.1,-2.7 v -16.8 c -0.8,0.2 -1.6,0.4 -2.4,0.7 v 58.6 l 2.4,4.6 z"
           class="st0" />
        <path
           style="fill:#28c2ce;fill-opacity:1"
           id="path1022"
           d="m 141.2,213.1 c -1.4,3 -2.2,6.4 -2.2,9.9 0,3.5 0.8,6.9 2.2,9.9 z"
           class="st0" />
        <path
           style="fill:#28c2ce;fill-opacity:1"
           id="path1024"
           d="m 170.8,201.4 c -0.6,-0.2 -1.2,-0.4 -1.8,-0.6 v 59.9 l 1.8,-3.5 z"
           class="st0" />
        <path
           style="fill:#28c2ce;fill-opacity:1"
           id="path1026"
           d="m 147.4,205.2 c -1.7,1.4 -3.1,3 -4.4,4.8 v 26.6 l 4.4,8.4 z"
           class="st0" />
        <path
           style="fill:#28c2ce;fill-opacity:1"
           id="path1028"
           d="m 174.9,203.5 c -0.8,-0.5 -1.6,-1 -2.4,-1.4 v 51.6 l 2.4,-4.6 z"
           class="st0" />
        <path
           style="fill:#28c2ce;fill-opacity:1"
           id="path1030"
           d="m 179.8,207.8 c -0.4,-0.5 -0.9,-1 -1.4,-1.5 v 35.8 l 1.4,-2.7 z"
           class="st0" />
        <path
           style="fill:#28c2ce;fill-opacity:1"
           id="path1032"
           d="m 153.4,201.5 c -0.8,0.3 -1.5,0.6 -2.2,1 v 49.9 l 2.2,4.2 z"
           class="st0" />
        <g
           style="fill:#28c2ce;fill-opacity:1"
           id="g1038">
          <path
             style="fill:#28c2ce;fill-opacity:1"
             id="path1034"
             d="m 184.7,229.4 c 0.6,-2 0.9,-4.1 0.9,-6.3 0,-2.2 -0.3,-4.3 -0.9,-6.3 z"
             class="st0" />
          <path
             style="fill:#28c2ce;fill-opacity:1"
             id="path1036"
             d="m 182.9,212.3 c -0.3,-0.5 -0.6,-1 -0.9,-1.5 v 24.6 c 0.3,-0.5 0.6,-1 0.9,-1.5 z"
             class="st0" />
        </g>
      </g>
    </g>
    <rect
       y="106.91056"
       x="102.6451"
       height="20.552456"
       width="16.441963"
       id="rect1528"
       style="fill:#ececec;fill-opacity:0;stroke-width:0.264583" />
    <rect
       y="106.91056"
       x="102.6451"
       height="20.268974"
       width="13.559898"
       id="rect1530"
       style="fill:#ececec;fill-opacity:1;stroke-width:0.264583;opacity:0" />
    <rect
       y="105.06792"
       x="101.22769"
       height="22.395084"
       width="17.859373"
       id="rect1602"
       style="opacity:0;fill:#ececec;fill-opacity:1;stroke-width:0.264583" />
    <rect
       y="106.06011"
       x="106.70835"
       height="21.072174"
       width="11.244792"
       id="rect1604"
       style="opacity:0;fill:#ececec;fill-opacity:1;stroke-width:0.264583" />
    <rect
       y="104.17023"
       x="102.92859"
       height="20.316219"
       width="18.237352"
       id="rect1606"
       style="opacity:0;fill:#999999;fill-opacity:1;stroke-width:0.264583" />
    <rect
       ry="0"
       y="106.06011"
       x="102.07814"
       height="21.686382"
       width="14.977309"
       id="rect1608"
       style="opacity:0;fill:#ececec;fill-opacity:1;stroke-width:0.264583" />
    <rect
       y="105.06792"
       x="101.22769"
       height="23.245546"
       width="17.150671"
       id="rect1610"
       style="opacity:0;fill:#ececec;fill-opacity:1;stroke-width:0.264583" />
    <rect
       y="102.51659"
       x="95.652542"
       height="8.5044641"
       width="3.7797618"
       id="rect1852"
       style="opacity:0;fill:#060000;fill-opacity:1;stroke-width:0.264583" />
  </g>
</svg>
