<?xml version="1.0" encoding="utf-8"?>
<!-- Generator: Adobe Illustrator 19.0.0, SVG Export Plug-In . SVG Version: 6.00 Build 0)  -->
<svg version="1.1" id="Layer_1" xmlns="http://www.w3.org/2000/svg" xmlns:xlink="http://www.w3.org/1999/xlink" x="0px" y="0px"
	 viewBox="0 0 500 500" style="enable-background:new 0 0 500 500;" xml:space="preserve">
<style type="text/css">
	.st0{fill:#C32032;}
	.st1{fill:#FFFFFF;}
</style>
<g id="XMLID_1_">
	<path id="path3455" class="st0" d="M389.3,326.4c-1.4-0.8-2.9-1.2-4.5-1.2c-1.6,0-3,0.4-4.5,1.2c-1.5,0.8-2.6,1.9-3.5,3.4
		c-0.8,1.5-1.2,3.1-1.2,4.7c0,1.6,0.4,3.1,1.2,4.6c0.8,1.5,1.9,2.6,3.4,3.4c1.5,0.8,2.9,1.2,4.5,1.2c1.6,0,3.1-0.4,4.5-1.2
		c1.4-0.8,2.6-1.9,3.4-3.4c0.8-1.5,1.2-3,1.2-4.6c0-1.6-0.4-3.2-1.2-4.7C391.8,328.4,390.7,327.3,389.3,326.4 M391.4,338.4
		c-0.7,1.2-1.7,2.2-2.9,2.9c-1.2,0.7-2.4,1-3.7,1c-1.3,0-2.6-0.3-3.7-1c-1.2-0.7-2.2-1.6-2.8-2.9c-0.7-1.2-0.9-2.4-0.9-3.8
		c0-1.3,0.3-2.6,1-3.9c0.7-1.2,1.6-2.2,2.8-2.9c1.2-0.7,2.4-1,3.7-1c1.3,0,2.5,0.3,3.7,1c1.2,0.7,2.1,1.6,2.9,2.9
		c0.7,1.2,0.9,2.5,0.9,3.9C392.3,335.9,392,337.2,391.4,338.4 M386.3,335.7c-0.2-0.2-0.4-0.4-0.8-0.5c0.8-0.1,1.6-0.4,2.1-0.9
		c0.5-0.5,0.7-1.2,0.7-1.9c0-0.5-0.1-1-0.4-1.5c-0.3-0.4-0.7-0.8-1.2-0.9c-0.5-0.2-1.4-0.3-2.4-0.3h-3.4v9.9h1.6v-4.2h0.9
		c0.6,0,0.9,0.1,1.3,0.3c0.4,0.3,0.9,1.1,1.6,2.3l0.9,1.6h1.9l-1.2-1.9C387.2,336.8,386.8,336.1,386.3,335.7 M384.3,334h-1.9v-3h1.8
		c0.7,0,1.3,0.1,1.5,0.2c0.3,0.2,0.6,0.3,0.7,0.5c0.2,0.3,0.2,0.5,0.2,0.8c0,0.5-0.2,0.8-0.5,1.1C385.8,333.9,385.2,334,384.3,334
		 M60,156.2l36.4,172.2l2.8-1.4c38.7-20.3,77.4-19.1,103-14.5c27.9,5,46.7,14.9,46.9,15l1,0.6l1-0.5c45.7-20.3,83.5-19.2,107.1-14.6
		c25.6,5,40.6,14.8,40.7,15l2.9,1.9l0.7-3.4L440,156.2L60,156.2z"/>
	<path id="path3457" class="st1" d="M323.2,194.9v13h6.8l-3.4,9.7h3.1l7.4-8.9h0v-13.8H323.2z M193.7,202.8
		c-20.2,0-32.3,11.3-32.3,30.1c0,18.9,11.6,30.2,33.5,30.2c19.9,0,29-7.6,31.1-20.5h-17.8c-1,5-5.6,6.7-11.7,6.7
		c-7.1,0-11.6-4.9-11.6-12.9h40.8c0.2-0.9,0.3-2.2,0.3-3.5C226,216.6,215.3,202.8,193.7,202.8z M368,203c-17.9,0-29.4,7.2-29.4,19.5
		c0,23,34.1,15.2,34.1,23.3c0,3.1-2.5,4.7-7.3,4.7c-5.5,0-9.4-2.5-9.4-7.4h-17.9v0.3c0,10.4,7.3,19,26.8,19c22.1,0,30.5-8.8,30.5-20
		c0-23.4-35.7-14.6-35.7-23.6c0-1.8,2.3-3.9,8.2-3.9c5.8,0,9.2,2.7,9.2,5.5h16.4C393.6,210.9,383.9,203,368,203z M296,204.1v57.1
		h21.4v-57.1H296z M220.1,204.2l28,57.1h17.6l27.1-57.1h-17.6l-15.1,32.9h-0.4l-15-32.9H220.1z M106.8,204.7v56.5h53.6v-14.4h-32.3
		v-42.1H106.8z M193.9,215c6.1,0,8.1,5,8.1,11.3h-16.3C185.7,220.7,187.8,215,193.9,215z"/>
</g>
</svg>
