<?xml version="1.0" encoding="UTF-8" standalone="no"?>
<svg
   xmlns:dc="http://purl.org/dc/elements/1.1/"
   xmlns:cc="http://creativecommons.org/ns#"
   xmlns:rdf="http://www.w3.org/1999/02/22-rdf-syntax-ns#"
   xmlns:svg="http://www.w3.org/2000/svg"
   xmlns="http://www.w3.org/2000/svg"
   xmlns:sodipodi="http://sodipodi.sourceforge.net/DTD/sodipodi-0.dtd"
   xmlns:inkscape="http://www.inkscape.org/namespaces/inkscape"
   inkscape:version="1.0 (4035a4fb49, 2020-05-01)"
   height="80.599998"
   width="50"
   sodipodi:docname="Locoshop_icon.svg"
   xml:space="preserve"
   viewBox="0 0 50 80.599998"
   y="0px"
   x="0px"
   id="Layer_1"
   version="1.1"><metadata
   id="metadata1067"><rdf:RDF><cc:Work
       rdf:about=""><dc:format>image/svg+xml</dc:format><dc:type
         rdf:resource="http://purl.org/dc/dcmitype/StillImage" /><dc:title></dc:title></cc:Work></rdf:RDF></metadata><defs
   id="defs1065" /><sodipodi:namedview
   inkscape:current-layer="Layer_1"
   inkscape:window-maximized="1"
   inkscape:window-y="-8"
   inkscape:window-x="-8"
   inkscape:cy="196.2"
   inkscape:cx="167"
   inkscape:zoom="1.0732323"
   showgrid="false"
   id="namedview1063"
   inkscape:window-height="1017"
   inkscape:window-width="1920"
   inkscape:pageshadow="2"
   inkscape:pageopacity="0"
   guidetolerance="10"
   gridtolerance="10"
   objecttolerance="10"
   borderopacity="1"
   bordercolor="#666666"
   pagecolor="#ffffff" />
<style
   id="style1010"
   type="text/css">
	.st0{fill:#FFFFFF;}
	.st1{enable-background:new    ;}
</style>
<g
   transform="translate(-139,-199.8)"
   id="g1042">
	<path
   id="path1012"
   d="m 167.5,233.4 c -0.3,0.5 -0.6,1 -1.1,1.5 -0.3,0.3 -0.6,0.5 -0.9,0.7 v 31.9 l 2,-3.9 z"
   class="st0" />
	<path
   id="path1014"
   d="m 164.1,236.1 c -0.6,0.1 -1.2,0.2 -1.8,0.2 -1.4,0 -2.6,-0.3 -3.4,-0.9 v 31.7 l 3.5,6.7 1.8,-3.5 v -34.2 z"
   class="st0" />
	<g
   id="g1040">
		<path
   id="path1016"
   d="m 167.5,217.4 v -17 c -0.6,-0.1 -1.3,-0.3 -2,-0.4 v 15.4 c 0.4,0.2 0.8,0.5 1.1,0.8 0.4,0.4 0.7,0.8 0.9,1.2 z"
   class="st0" />
		<path
   id="path1018"
   d="m 164.1,214.8 v -14.9 c -0.6,0 -1.2,-0.1 -1.8,-0.1 -1.2,0 -2.3,0.1 -3.5,0.3 v 15.5 c 0.9,-0.6 2.1,-0.9 3.5,-0.9 0.6,-0.2 1.2,-0.1 1.8,0.1 z"
   class="st0" />
		<path
   id="path1020"
   d="m 157.3,233.8 c -0.4,-0.6 -0.8,-1.3 -1,-2.1 -0.3,-1.2 -0.5,-3.3 -0.5,-6.3 0,-2.3 0.1,-4.2 0.4,-5.6 0.2,-1 0.6,-1.9 1.1,-2.7 v -16.8 c -0.8,0.2 -1.6,0.4 -2.4,0.7 v 58.6 l 2.4,4.6 z"
   class="st0" />
		<path
   id="path1022"
   d="m 141.2,213.1 c -1.4,3 -2.2,6.4 -2.2,9.9 0,3.5 0.8,6.9 2.2,9.9 z"
   class="st0" />
		<path
   id="path1024"
   d="m 170.8,201.4 c -0.6,-0.2 -1.2,-0.4 -1.8,-0.6 v 59.9 l 1.8,-3.5 z"
   class="st0" />
		<path
   id="path1026"
   d="m 147.4,205.2 c -1.7,1.4 -3.1,3 -4.4,4.8 v 26.6 l 4.4,8.4 z"
   class="st0" />
		<path
   id="path1028"
   d="m 174.9,203.5 c -0.8,-0.5 -1.6,-1 -2.4,-1.4 v 51.6 l 2.4,-4.6 z"
   class="st0" />
		<path
   id="path1030"
   d="m 179.8,207.8 c -0.4,-0.5 -0.9,-1 -1.4,-1.5 v 35.8 l 1.4,-2.7 z"
   class="st0" />
		<path
   id="path1032"
   d="m 153.4,201.5 c -0.8,0.3 -1.5,0.6 -2.2,1 v 49.9 l 2.2,4.2 z"
   class="st0" />
		<g
   id="g1038">
			<path
   id="path1034"
   d="m 184.7,229.4 c 0.6,-2 0.9,-4.1 0.9,-6.3 0,-2.2 -0.3,-4.3 -0.9,-6.3 z"
   class="st0" />
			<path
   id="path1036"
   d="m 182.9,212.3 c -0.3,-0.5 -0.6,-1 -0.9,-1.5 v 24.6 c 0.3,-0.5 0.6,-1 0.9,-1.5 z"
   class="st0" />
		</g>
	</g>
</g>
</svg>
