<?xml version="1.0" encoding="UTF-8" standalone="no"?>
<svg
   xmlns:dc="http://purl.org/dc/elements/1.1/"
   xmlns:cc="http://creativecommons.org/ns#"
   xmlns:rdf="http://www.w3.org/1999/02/22-rdf-syntax-ns#"
   xmlns:svg="http://www.w3.org/2000/svg"
   xmlns="http://www.w3.org/2000/svg"
   xmlns:sodipodi="http://sodipodi.sourceforge.net/DTD/sodipodi-0.dtd"
   xmlns:inkscape="http://www.inkscape.org/namespaces/inkscape"
   inkscape:version="1.0 (4035a4fb49, 2020-05-01)"
   height="80.599998"
   width="315.83728"
   sodipodi:docname="Locoshop_logo_white.svg"
   xml:space="preserve"
   viewBox="0 0 315.83728 80.599998"
   y="0px"
   x="0px"
   id="Layer_1"
   version="1.1"><metadata
   id="metadata1067"><rdf:RDF><cc:Work
       rdf:about=""><dc:format>image/svg+xml</dc:format><dc:type
         rdf:resource="http://purl.org/dc/dcmitype/StillImage" /><dc:title></dc:title></cc:Work></rdf:RDF></metadata><defs
   id="defs1065" /><sodipodi:namedview
   inkscape:current-layer="Layer_1"
   inkscape:window-maximized="1"
   inkscape:window-y="-8"
   inkscape:window-x="-8"
   inkscape:cy="196.2"
   inkscape:cx="167"
   inkscape:zoom="1.0732323"
   showgrid="false"
   id="namedview1063"
   inkscape:window-height="1017"
   inkscape:window-width="1920"
   inkscape:pageshadow="2"
   inkscape:pageopacity="0"
   guidetolerance="10"
   gridtolerance="10"
   objecttolerance="10"
   borderopacity="1"
   bordercolor="#666666"
   pagecolor="#ffffff" />
<style
   id="style1010"
   type="text/css">
	.st0{fill:#FFFFFF;}
	.st1{enable-background:new    ;}
</style>
<g
   transform="translate(-139,-199.8)"
   id="g1042">
	<path
   id="path1012"
   d="m 167.5,233.4 c -0.3,0.5 -0.6,1 -1.1,1.5 -0.3,0.3 -0.6,0.5 -0.9,0.7 v 31.9 l 2,-3.9 z"
   class="st0" />
	<path
   id="path1014"
   d="m 164.1,236.1 c -0.6,0.1 -1.2,0.2 -1.8,0.2 -1.4,0 -2.6,-0.3 -3.4,-0.9 v 31.7 l 3.5,6.7 1.8,-3.5 v -34.2 z"
   class="st0" />
	<g
   id="g1040">
		<path
   id="path1016"
   d="m 167.5,217.4 v -17 c -0.6,-0.1 -1.3,-0.3 -2,-0.4 v 15.4 c 0.4,0.2 0.8,0.5 1.1,0.8 0.4,0.4 0.7,0.8 0.9,1.2 z"
   class="st0" />
		<path
   id="path1018"
   d="m 164.1,214.8 v -14.9 c -0.6,0 -1.2,-0.1 -1.8,-0.1 -1.2,0 -2.3,0.1 -3.5,0.3 v 15.5 c 0.9,-0.6 2.1,-0.9 3.5,-0.9 0.6,-0.2 1.2,-0.1 1.8,0.1 z"
   class="st0" />
		<path
   id="path1020"
   d="m 157.3,233.8 c -0.4,-0.6 -0.8,-1.3 -1,-2.1 -0.3,-1.2 -0.5,-3.3 -0.5,-6.3 0,-2.3 0.1,-4.2 0.4,-5.6 0.2,-1 0.6,-1.9 1.1,-2.7 v -16.8 c -0.8,0.2 -1.6,0.4 -2.4,0.7 v 58.6 l 2.4,4.6 z"
   class="st0" />
		<path
   id="path1022"
   d="m 141.2,213.1 c -1.4,3 -2.2,6.4 -2.2,9.9 0,3.5 0.8,6.9 2.2,9.9 z"
   class="st0" />
		<path
   id="path1024"
   d="m 170.8,201.4 c -0.6,-0.2 -1.2,-0.4 -1.8,-0.6 v 59.9 l 1.8,-3.5 z"
   class="st0" />
		<path
   id="path1026"
   d="m 147.4,205.2 c -1.7,1.4 -3.1,3 -4.4,4.8 v 26.6 l 4.4,8.4 z"
   class="st0" />
		<path
   id="path1028"
   d="m 174.9,203.5 c -0.8,-0.5 -1.6,-1 -2.4,-1.4 v 51.6 l 2.4,-4.6 z"
   class="st0" />
		<path
   id="path1030"
   d="m 179.8,207.8 c -0.4,-0.5 -0.9,-1 -1.4,-1.5 v 35.8 l 1.4,-2.7 z"
   class="st0" />
		<path
   id="path1032"
   d="m 153.4,201.5 c -0.8,0.3 -1.5,0.6 -2.2,1 v 49.9 l 2.2,4.2 z"
   class="st0" />
		<g
   id="g1038">
			<path
   id="path1034"
   d="m 184.7,229.4 c 0.6,-2 0.9,-4.1 0.9,-6.3 0,-2.2 -0.3,-4.3 -0.9,-6.3 z"
   class="st0" />
			<path
   id="path1036"
   d="m 182.9,212.3 c -0.3,-0.5 -0.6,-1 -0.9,-1.5 v 24.6 c 0.3,-0.5 0.6,-1 0.9,-1.5 z"
   class="st0" />
		</g>
	</g>
</g>
<g
   transform="translate(-139,-199.8)"
   id="g1060"
   class="st1">
	<path
   id="path1044"
   d="m 213.3,265.1 c -7.2,0 -10.4,-4.8 -10.4,-10.4 v -42.6 h 7.6 v 42.2 c 0,2.9 1,4.4 4.1,4.4 h 3.4 v 6.5 h -4.7 z"
   class="st0" />
	<path
   id="path1046"
   d="m 245.1,261.1 c -2.5,2.5 -6.2,4.5 -11.3,4.5 -5.1,0 -8.8,-1.9 -11.2,-4.5 -3.6,-3.7 -4.5,-8.5 -4.5,-14.9 0,-6.3 0.9,-11.1 4.5,-14.8 2.5,-2.5 6.1,-4.5 11.2,-4.5 5.1,0 8.9,1.9 11.3,4.5 3.6,3.7 4.5,8.5 4.5,14.8 0,6.4 -0.9,11.2 -4.5,14.9 z m -5.7,-25.2 c -1.4,-1.4 -3.4,-2.2 -5.6,-2.2 -2.2,0 -4.1,0.7 -5.5,2.2 -2.3,2.3 -2.6,6.3 -2.6,10.4 0,4.1 0.3,8 2.6,10.4 1.4,1.4 3.3,2.2 5.5,2.2 2.2,0 4.2,-0.8 5.6,-2.2 2.3,-2.3 2.6,-6.3 2.6,-10.4 0,-4.2 -0.3,-8.1 -2.6,-10.4 z"
   class="st0" />
	<path
   id="path1048"
   d="m 269.8,265.6 c -8.5,0 -16.8,-5.2 -16.8,-19.4 0,-14.2 8.3,-19.3 16.8,-19.3 5.2,0 8.9,1.5 12.4,5.3 l -5.2,5.1 c -2.4,-2.6 -4.2,-3.6 -7.2,-3.6 -2.9,0 -5.4,1.2 -7,3.4 -1.6,2.1 -2.2,4.8 -2.2,9.2 0,4.4 0.6,7.2 2.2,9.2 1.6,2.2 4.1,3.4 7,3.4 3,0 4.8,-1 7.2,-3.6 l 5.2,5 c -3.6,3.7 -7.2,5.3 -12.4,5.3 z"
   class="st0" />
	<path
   id="path1050"
   d="m 309.9,261.1 c -2.5,2.5 -6.2,4.5 -11.3,4.5 -5.1,0 -8.8,-1.9 -11.2,-4.5 -3.6,-3.7 -4.5,-8.5 -4.5,-14.9 0,-6.3 0.9,-11.1 4.5,-14.8 2.5,-2.5 6.1,-4.5 11.2,-4.5 5.1,0 8.9,1.9 11.3,4.5 3.6,3.7 4.5,8.5 4.5,14.8 0,6.4 -0.9,11.2 -4.5,14.9 z m -5.7,-25.2 c -1.4,-1.4 -3.4,-2.2 -5.6,-2.2 -2.2,0 -4.1,0.7 -5.5,2.2 -2.3,2.3 -2.6,6.3 -2.6,10.4 0,4.1 0.3,8 2.6,10.4 1.4,1.4 3.3,2.2 5.5,2.2 2.2,0 4.2,-0.8 5.6,-2.2 2.3,-2.3 2.6,-6.3 2.6,-10.4 0,-4.2 -0.3,-8.1 -2.6,-10.4 z"
   class="st0" />
	<path
   id="path1052"
   d="m 331.9,265.6 c -6.2,0 -11.4,-1 -15.9,-5.4 l 5,-5 c 3.1,3.1 7.2,3.9 10.9,3.9 4.6,0 8.3,-1.6 8.3,-5.2 0,-2.5 -1.4,-4.2 -5.1,-4.5 l -6,-0.5 c -7.1,-0.6 -11.2,-3.8 -11.2,-10.4 0,-7.4 6.3,-11.5 14.2,-11.5 5.7,0 10.5,1.2 14,4.2 l -4.8,4.8 c -2.4,-2 -5.7,-2.8 -9.3,-2.8 -4.5,0 -6.9,2 -6.9,4.8 0,2.2 1.2,3.9 5.2,4.3 l 6,0.5 c 7.1,0.6 11.2,3.9 11.2,10.7 0.1,8 -6.6,12.1 -15.6,12.1 z"
   class="st0" />
	<path
   id="path1054"
   d="M 374.8,265.1 V 242 c 0,-5.7 -3.4,-8.3 -7.6,-8.3 -4.2,0 -7.7,2.6 -7.7,8.3 v 23.2 h -7.6 v -53 h 7.6 v 19.1 c 2.6,-2.8 6,-4.2 9.8,-4.2 8.4,0 13.1,5.7 13.1,13.9 v 24.4 h -7.6 z"
   class="st0" />
	<path
   id="path1056"
   d="m 414.3,261.1 c -2.5,2.5 -6.2,4.5 -11.3,4.5 -5.1,0 -8.8,-1.9 -11.2,-4.5 -3.6,-3.7 -4.5,-8.5 -4.5,-14.9 0,-6.3 0.9,-11.1 4.5,-14.8 2.5,-2.5 6.1,-4.5 11.2,-4.5 5.1,0 8.9,1.9 11.3,4.5 3.6,3.7 4.5,8.5 4.5,14.8 0,6.4 -0.9,11.2 -4.5,14.9 z m -5.7,-25.2 c -1.4,-1.4 -3.4,-2.2 -5.6,-2.2 -2.2,0 -4.1,0.7 -5.5,2.2 -2.3,2.3 -2.6,6.3 -2.6,10.4 0,4.1 0.3,8 2.6,10.4 1.4,1.4 3.3,2.2 5.5,2.2 2.2,0 4.2,-0.8 5.6,-2.2 2.3,-2.3 2.6,-6.3 2.6,-10.4 0,-4.2 -0.3,-8.1 -2.6,-10.4 z"
   class="st0" />
	<path
   id="path1058"
   d="m 450.7,262.2 c -2.1,2.1 -5.4,3.4 -9.2,3.4 -4,0 -7.2,-1 -9.9,-4.3 v 19.1 H 424 v -53 h 7.4 v 4 c 2.8,-3.4 5.9,-4.5 10,-4.5 3.8,0 7.2,1.3 9.2,3.4 3.8,3.8 4.2,10.2 4.2,15.9 0.2,5.8 -0.3,12.2 -4.1,16 z m -11.1,-28.5 c -6.9,0 -7.9,5.8 -7.9,12.5 0,6.7 1,12.6 7.9,12.6 6.9,0 7.8,-5.9 7.8,-12.6 0,-6.7 -1,-12.5 -7.8,-12.5 z"
   class="st0" />
</g>
</svg>
