<?xml version="1.0" encoding="utf-8"?>
<!-- Generator: Adobe Illustrator 19.0.0, SVG Export Plug-In . SVG Version: 6.00 Build 0)  -->
<svg version="1.1" id="Layer_1" xmlns="http://www.w3.org/2000/svg" xmlns:xlink="http://www.w3.org/1999/xlink" x="0px" y="0px"
	 viewBox="0 0 500 500" style="enable-background:new 0 0 500 500;" xml:space="preserve">
<style type="text/css">
	.st0{fill:#074CA1;}
</style>
<g id="XMLID_1_">
	<polygon id="XMLID_7_" class="st0" points="150,225.7 128.8,225.7 120.4,273.1 133.4,273.1 138.7,236.2 140,236.2 145.4,273.1 
		158.4,273.1 	"/>
	<polygon id="XMLID_6_" class="st0" points="211.4,273.1 210.8,237.4 209.6,237.4 203.5,273.1 190.8,273.1 184.7,237.4 183.5,237.4 
		182.9,273.1 170.8,273.1 172.7,225.7 193,225.7 196.6,251.9 197.7,251.9 201.2,225.7 221.5,225.7 223.5,273.1 	"/>
	<polygon id="XMLID_5_" class="st0" points="285.9,262.7 285.8,225.7 299.1,225.7 299.1,262 299.1,262.2 299.1,262.4 299.2,262.6 
		299.2,262.8 299.2,263 299.2,263.2 299.3,263.3 299.4,263.5 299.4,263.7 299.5,263.9 299.6,264 299.7,264.2 299.8,264.3 
		299.9,264.5 300,264.6 300.1,264.7 300.2,264.9 300.4,265 300.5,265.1 300.7,265.2 300.8,265.3 301,265.4 301.1,265.5 301.3,265.6 
		301.5,265.7 301.6,265.7 301.8,265.8 302,265.8 302.2,265.8 302.4,265.9 302.6,265.9 302.8,265.9 303,265.9 303.1,265.9 
		303.3,265.8 303.5,265.8 303.7,265.8 303.9,265.7 304.1,265.7 304.2,265.6 304.4,265.5 304.6,265.4 304.7,265.3 304.9,265.2 
		305,265.1 305.1,265 305.3,264.9 305.4,264.7 305.5,264.6 305.6,264.5 305.7,264.3 305.8,264.2 305.9,264 306,263.9 306.1,263.7 
		306.2,263.5 306.2,263.3 306.3,263.2 306.3,263 306.3,262.8 306.4,262.6 306.4,262.4 306.4,262.2 306.4,262 306.4,225.7 
		319.7,225.7 319.7,262.9 319.7,263.7 319.6,264.4 319.5,265.2 319.3,265.9 319.1,266.6 318.9,267.3 318.6,267.9 318.2,268.5 
		317.9,269.1 317.5,269.7 317,270.2 316.6,270.7 316.1,271.2 315.5,271.7 315,272.1 314.4,272.5 313.8,272.9 313.2,273.3 
		312.5,273.6 311.8,274 311.1,274.2 310.4,274.5 309.7,274.7 309,275 308.2,275.1 307.5,275.3 305.9,275.6 304.3,275.7 302.8,275.7 
		301.2,275.7 299.6,275.5 298.1,275.3 297.3,275.1 296.5,274.9 295.8,274.7 295.1,274.5 294.4,274.2 293.7,273.9 293,273.6 
		292.4,273.2 291.7,272.9 291.1,272.5 290.5,272 290,271.6 289.5,271.1 289,270.6 288.5,270.1 288.1,269.5 287.7,269 287.3,268.4 
		287,267.7 286.7,267.1 286.4,266.4 286.2,265.7 286.1,265 285.9,264.2 285.9,263.5 	"/>
	<polygon id="XMLID_4_" class="st0" points="376.2,225.7 364.7,225.7 364.7,255.4 364.4,255.4 351,225.7 336.8,225.7 336.8,273.1 
		348.3,273.1 348.3,245.4 348.6,245.4 361.2,273.1 376.2,273.1 	"/>
	<polygon id="XMLID_3_" class="st0" points="237.6,263.8 237.6,257.5 250.9,257.5 250.8,260.3 250.8,261 250.8,261.6 250.8,261.9 
		250.9,262.2 250.9,262.5 251,262.8 251.1,263 251.1,263.1 251.2,263.3 251.3,263.4 251.3,263.5 251.4,263.6 251.4,263.7 
		251.5,263.8 251.6,263.9 251.7,264 251.8,264.1 251.9,264.2 252,264.3 252.1,264.4 252.2,264.5 252.3,264.6 252.4,264.6 
		252.5,264.7 252.7,264.8 252.8,264.8 252.9,264.9 253.1,265 253.3,265 253.6,265.1 254,265.2 254.4,265.2 254.8,265.2 254.9,265.2 
		255,265.2 255.1,265.2 255.2,265.2 255.3,265.2 255.4,265.2 255.5,265.2 255.6,265.2 255.7,265.1 255.9,265 256.1,264.9 
		256.3,264.8 256.5,264.7 256.7,264.6 256.9,264.4 257.1,264.3 257.2,264.1 257.4,263.9 257.5,263.7 257.7,263.5 257.8,263.3 
		257.9,263 258,262.8 258.1,262.5 258.2,262.3 258.2,262 258.2,261.7 258.2,261.4 258.2,261.1 258.2,260.8 258.2,260.4 258.1,260.1 
		258,259.8 257.9,259.4 257.7,259 257.5,258.7 257.4,258.5 257.3,258.3 257.2,258.1 257.1,258 257,257.8 256.9,257.7 256.6,257.4 
		256.3,257.1 256,256.8 255.6,256.6 255.3,256.3 254.5,255.9 253.7,255.4 251.8,254.5 249.7,253.5 247.4,252.3 246.1,251.6 
		244.9,250.8 243.7,249.9 242.4,248.8 242.2,248.7 242,248.6 241.9,248.4 241.7,248.2 241.5,248.1 241.4,247.9 241,247.5 
		240.8,247.2 240.5,246.7 240.2,246.3 240,245.9 239.8,245.4 239.6,244.9 239.4,244.4 239.3,243.9 239,242.8 238.8,241.7 
		238.6,240.5 238.5,239.4 238.4,238.3 238.4,237.2 238.4,236.1 238.5,235.1 238.6,234.1 238.7,233.3 238.9,232.6 239,232 
		239.2,231.4 239.5,230.8 239.8,230.3 240.1,229.7 240.4,229.2 240.8,228.7 241.2,228.3 241.6,227.9 242.1,227.4 242.6,227.1 
		243.1,226.7 243.6,226.4 244.1,226 244.7,225.7 245.3,225.5 245.9,225.2 246.5,225 247.2,224.8 248.5,224.4 249.8,224.1 
		251.2,223.9 252.6,223.8 254.1,223.8 255.5,223.8 256.9,223.9 258.3,224.1 259.7,224.4 261.1,224.7 262.3,225.1 263.6,225.5 
		264.7,226 265.3,226.3 265.8,226.6 266.3,226.9 266.8,227.3 267.3,227.6 267.7,228 268.1,228.3 268.5,228.7 268.9,229.1 
		269.2,229.5 269.5,230 269.6,230.2 269.7,230.4 269.9,230.6 270,230.9 270.1,231.1 270.1,231.3 270.2,231.6 270.3,231.8 270.3,232 
		270.4,232.3 270.4,232.5 270.5,232.8 270.5,233.1 270.5,233.3 270.5,239.9 258.4,239.9 258.5,237.1 258.5,236.5 258.4,235.9 
		258.4,235.6 258.4,235.4 258.3,235.1 258.2,234.9 258.2,234.8 258.2,234.7 258.1,234.6 258.1,234.4 258,234.3 257.9,234.2 
		257.9,234.1 257.8,234.1 257.7,234 257.7,233.9 257.6,233.8 257.5,233.7 257.4,233.6 257.3,233.6 257.2,233.5 257.1,233.4 
		256.9,233.4 256.8,233.3 256.7,233.2 256.6,233.2 256.4,233.1 256.3,233.1 255.9,233 255.6,232.9 255.2,232.9 254.8,232.9 
		254.4,232.9 254.2,232.9 254,232.9 253.9,232.9 253.7,233 253.5,233 253.3,233.1 253.1,233.2 253,233.3 252.8,233.3 252.6,233.5 
		252.4,233.6 252.3,233.7 252.1,233.8 252,234 251.8,234.2 251.7,234.3 251.6,234.4 251.5,234.5 251.5,234.6 251.4,234.7 
		251.4,234.8 251.3,234.9 251.3,235 251.2,235.1 251.2,235.3 251.2,235.4 251.1,235.5 251.1,235.6 251.1,235.7 251.1,235.9 
		251.1,236 251,236.1 251,236.3 251,236.4 251.1,236.6 251.1,236.7 251.1,237 251.2,237.3 251.3,237.7 251.4,238 251.5,238.3 
		251.7,238.7 252,239.1 252.4,239.5 252.8,239.9 253.1,240.3 253.9,241 254.7,241.6 255.5,242.2 256.4,242.7 257.3,243.2 
		258.1,243.6 261.6,245.2 263.4,246 264.2,246.4 265,246.9 265.8,247.3 266.5,247.8 266.9,248.1 267.3,248.4 267.6,248.7 267.9,249 
		268.2,249.3 268.6,249.7 268.8,250.1 269.1,250.4 269.4,250.8 269.7,251.3 269.9,251.7 270.1,252.2 270.3,252.7 270.5,253.2 
		270.7,253.7 270.9,254.3 271,254.9 271.1,255.5 271.3,256.1 271.3,256.8 271.5,258.2 271.5,259.8 271.4,261.5 271.3,263.4 
		271.2,264.1 271.1,264.7 270.9,265.4 270.7,266 270.4,266.6 270.1,267.2 269.8,267.8 269.4,268.3 269,268.8 268.6,269.3 
		268.1,269.8 267.6,270.3 267.1,270.7 266.6,271.1 266,271.5 265.4,271.8 264.8,272.1 264.2,272.5 263.5,272.7 262.9,273 
		262.2,273.3 261.5,273.5 260,273.9 258.5,274.1 257,274.3 255.5,274.5 254,274.5 252.4,274.4 250.9,274.3 249.4,274.1 248,273.8 
		246.6,273.4 245.2,272.9 244.6,272.6 243.9,272.3 243.3,272 242.8,271.7 242.2,271.4 241.7,271 241.2,270.6 240.7,270.2 
		240.2,269.8 239.8,269.3 239.4,268.9 239.1,268.4 238.7,267.9 238.6,267.6 238.4,267.3 238.3,267.1 238.2,266.8 238.1,266.5 
		238,266.2 237.9,265.9 237.8,265.6 237.8,265.3 237.7,265 237.7,264.7 237.6,264.4 237.6,264.1 	"/>
	<polygon id="XMLID_2_" class="st0" points="91.3,223.7 89.3,223.9 87.4,224.1 86.5,224.3 85.7,224.5 84.9,224.7 84.1,224.9 
		83.4,225.2 82.7,225.5 82,225.8 81.4,226.1 80.8,226.4 80.3,226.8 79.8,227.2 79.3,227.6 78.9,228 78.4,228.4 78.1,228.9 
		77.7,229.3 77.4,229.8 77.1,230.3 76.8,230.8 76.6,231.3 76.3,231.8 76.1,232.3 76,232.8 75.8,233.4 75.7,233.9 75.6,234.4 
		75.5,235 75.5,235.5 75.4,236.6 75.4,237.7 75.5,238.8 75.6,239.9 75.8,240.9 76.1,241.9 76.4,242.9 76.7,243.8 77,244.7 
		77.4,245.5 77.8,246.3 78.2,247 78.6,247.6 78.8,247.9 79,248.1 79.2,248.3 79.4,248.5 79.6,248.7 79.7,248.8 79.8,248.8 
		81.1,249.9 82.3,250.8 83.6,251.6 84.8,252.3 87.1,253.5 89.2,254.5 91.1,255.4 91.9,255.9 92.7,256.3 93.1,256.6 93.4,256.8 
		93.7,257.1 94,257.4 94.3,257.7 94.4,257.8 94.5,258 94.6,258.1 94.7,258.3 94.8,258.5 94.9,258.7 95.1,259 95.3,259.4 95.4,259.8 
		95.5,260.1 95.6,260.4 95.6,260.8 95.7,261.1 95.7,261.4 95.7,261.7 95.6,262 95.6,262.3 95.5,262.5 95.4,262.8 95.3,263 
		95.2,263.3 95.1,263.5 95,263.7 94.8,263.9 94.6,264.1 94.5,264.3 94.3,264.4 94.1,264.6 93.9,264.7 93.8,264.8 93.6,264.9 
		93.4,265 93.2,265.1 93,265.2 92.9,265.2 92.8,265.2 92.7,265.2 92.6,265.2 92.5,265.2 92.4,265.2 92.3,265.2 92.2,265.2 
		91.8,265.2 91.4,265.2 91,265.1 90.7,265 90.5,265 90.4,264.9 90.2,264.8 90.1,264.8 89.9,264.7 89.8,264.6 89.7,264.6 89.6,264.5 
		89.5,264.4 89.4,264.3 89.3,264.2 89.2,264.1 89.1,264 89,263.9 88.9,263.8 88.9,263.7 88.8,263.6 88.7,263.5 88.7,263.4 
		88.6,263.3 88.6,263.1 88.5,263 88.4,262.8 88.4,262.5 88.3,262.2 88.3,261.9 88.2,261.6 88.2,261 88.2,260.3 88.3,257.5 75,257.5 
		75,263.8 75,264.1 75,264.4 75.1,264.7 75.1,265 75.2,265.3 75.2,265.6 75.3,265.9 75.4,266.2 75.5,266.5 75.6,266.8 75.7,267.1 
		75.9,267.3 76,267.6 76.1,267.9 76.5,268.4 76.8,268.9 77.2,269.3 77.6,269.8 78.1,270.2 78.6,270.6 79.1,271 79.6,271.4 
		80.2,271.7 80.8,272 81.4,272.3 82,272.6 82.6,272.9 84,273.4 85.4,273.8 86.8,274.1 88.3,274.3 89.9,274.4 91.4,274.5 92.9,274.5 
		94.5,274.3 96,274.1 97.4,273.9 98.9,273.5 99.6,273.3 100.3,273 100.9,272.7 101.6,272.5 102.2,272.1 102.8,271.8 103.4,271.5 
		104,271.1 104.5,270.7 105.1,270.3 105.5,269.8 106,269.3 106.4,268.8 106.8,268.3 107.2,267.8 107.5,267.2 107.8,266.6 108.1,266 
		108.3,265.4 108.5,264.7 108.6,264.1 108.7,263.4 108.8,261.5 108.9,259.8 108.9,258.2 108.8,256.8 108.7,256.1 108.6,255.5 
		108.4,254.9 108.3,254.3 108.1,253.7 108,253.2 107.8,252.7 107.5,252.2 107.3,251.7 107.1,251.3 106.8,250.8 106.5,250.4 
		106.3,250.1 106,249.7 105.7,249.3 105.3,249 105,248.7 104.7,248.4 104.3,248.1 104,247.8 103.2,247.3 102.4,246.9 101.6,246.4 
		100.8,246 99.1,245.2 95.5,243.6 94.7,243.2 93.8,242.7 93,242.2 92.1,241.6 91.3,241 90.6,240.3 90.2,239.9 89.8,239.5 
		89.5,239.1 89.1,238.7 88.9,238.3 88.8,238 88.7,237.7 88.6,237.3 88.5,237 88.5,236.7 88.5,236.6 88.5,236.4 88.5,236.3 
		88.5,236.1 88.5,236 88.5,235.9 88.5,235.7 88.5,235.6 88.5,235.5 88.6,235.4 88.6,235.3 88.7,235.1 88.7,235 88.7,234.9 
		88.8,234.8 88.8,234.7 88.9,234.6 89,234.5 89,234.4 89.1,234.3 89.2,234.2 89.4,234 89.5,233.8 89.7,233.7 89.9,233.6 90,233.5 
		90.2,233.3 90.4,233.3 90.6,233.2 90.7,233.1 90.9,233 91.1,233 91.3,232.9 91.5,232.9 91.6,232.9 91.8,232.9 92.2,232.9 
		92.6,232.9 93,232.9 93.4,233 93.7,233.1 93.8,233.1 94,233.2 94.1,233.2 94.2,233.3 94.4,233.4 94.5,233.4 94.6,233.5 94.7,233.6 
		94.8,233.6 94.9,233.7 95,233.8 95.1,233.9 95.1,234 95.2,234.1 95.3,234.1 95.4,234.2 95.4,234.3 95.5,234.4 95.5,234.6 
		95.6,234.7 95.6,234.8 95.7,234.9 95.7,235.1 95.8,235.4 95.8,235.6 95.9,235.9 95.9,236.5 95.9,237.1 95.8,239.9 107.9,239.9 
		107.9,233.3 107.9,233 107.9,232.6 107.8,232.3 107.8,231.9 107.7,231.6 107.6,231.3 107.5,231 107.5,230.7 107.3,230.4 
		107.2,230.1 107.1,229.9 106.9,229.6 106.8,229.3 106.6,229.1 106.4,228.8 106.3,228.6 106.1,228.4 105.9,228.2 105.6,227.9 
		105.4,227.7 105,227.3 104.5,226.9 103.9,226.6 103.4,226.3 102.8,226 102.2,225.7 101.6,225.4 100.9,225.2 99.6,224.8 98.2,224.5 
		96.9,224.2 95.4,224 94,223.9 	"/>
	<polygon id="XMLID_8_" class="st0" points="409.9,276.2 411.4,276.3 412.9,276.2 414.2,276.1 415.4,276 416.5,275.8 417.5,275.5 
		418,275.4 418.5,275.2 418.9,275.1 419.3,274.9 419.7,274.7 420.1,274.5 420.5,274.3 420.8,274.1 421.2,273.9 421.5,273.6 
		421.8,273.4 422,273.1 422.3,272.9 422.5,272.6 422.8,272.3 423,272 423.2,271.8 423.4,271.5 423.6,271.2 423.7,270.9 423.9,270.6 
		424,270.3 424.2,269.6 424.4,269 424.6,268.4 424.7,267.7 424.8,267.1 424.9,266.4 425,265.8 425,264.5 425,263.3 425,261.2 
		425,248.3 409.3,248.3 409.3,255.2 412.5,255.2 412.5,263.3 412.5,263.5 412.5,263.7 412.5,263.8 412.4,264 412.4,264.2 
		412.4,264.3 412.3,264.5 412.2,264.6 412.2,264.8 412.1,264.9 412,265.1 411.9,265.2 411.8,265.4 411.7,265.5 411.6,265.6 
		411.5,265.7 411.4,265.8 411.3,265.9 411.1,266 411,266.1 410.9,266.2 410.7,266.3 410.6,266.4 410.4,266.5 410.3,266.5 
		410.1,266.6 410,266.6 409.8,266.7 409.6,266.7 409.4,266.7 409.3,266.7 409.1,266.7 408.9,266.7 408.7,266.7 408.6,266.7 
		408.4,266.7 408.2,266.6 408.1,266.6 407.9,266.5 407.8,266.5 407.6,266.4 407.5,266.3 407.3,266.2 407.2,266.1 407.1,266 
		406.9,265.9 406.8,265.8 406.7,265.7 406.6,265.6 406.5,265.5 406.4,265.4 406.3,265.2 406.2,265.1 406.1,264.9 406,264.8 
		406,264.6 405.9,264.5 405.8,264.3 405.8,264.2 405.8,264 405.7,263.8 405.7,263.7 405.7,263.5 405.7,263.3 405.7,236.8 
		405.7,236.7 405.7,236.5 405.7,236.3 405.8,236.1 405.8,236 405.8,235.8 405.9,235.7 406,235.5 406,235.4 406.1,235.2 406.2,235.1 
		406.3,234.9 406.4,234.8 406.5,234.7 406.6,234.5 406.7,234.4 406.8,234.3 406.9,234.2 407.1,234.1 407.2,234 407.3,233.9 
		407.5,233.8 407.6,233.8 407.8,233.7 407.9,233.6 408.1,233.6 408.2,233.5 408.4,233.5 408.6,233.5 408.7,233.4 408.9,233.4 
		409.1,233.4 409.3,233.4 409.4,233.4 409.6,233.5 409.8,233.5 410,233.5 410.1,233.6 410.3,233.6 410.4,233.7 410.6,233.8 
		410.7,233.8 410.9,233.9 411,234 411.1,234.1 411.3,234.2 411.4,234.3 411.5,234.4 411.6,234.5 411.7,234.7 411.8,234.8 
		411.9,234.9 412,235.1 412.1,235.2 412.2,235.4 412.2,235.5 412.3,235.7 412.4,235.8 412.4,236 412.4,236.1 412.5,236.3 
		412.5,236.5 412.5,236.7 412.5,236.8 412.5,241.2 425,241.2 425,235.8 424.9,235.1 424.9,234.8 424.9,234.4 424.8,234.1 
		424.8,233.8 424.7,233.5 424.6,233.2 424.5,232.9 424.4,232.6 424.3,232.3 424.2,232 424,231.7 423.9,231.5 423.6,230.9 
		423.2,230.4 422.9,229.9 422.4,229.5 422,229 421.5,228.6 421,228.2 420.5,227.8 420,227.5 419.4,227.1 418.8,226.8 418.2,226.5 
		417.5,226.2 416.9,226 416.2,225.8 414.8,225.4 413.4,225.1 411.9,224.8 410.4,224.7 408.9,224.7 407.4,224.7 406,224.8 404.5,225 
		403.1,225.3 401.7,225.7 401,225.9 400.4,226.2 399.7,226.4 399.1,226.7 398.5,227 397.9,227.4 397.4,227.7 396.9,228.1 
		396.4,228.5 395.9,228.9 395.4,229.4 395,229.8 394.7,230.3 394.3,230.8 394,231.3 393.9,231.6 393.7,231.9 393.6,232.1 
		393.5,232.4 393.4,232.7 393.3,233 393.2,233.3 393.1,233.6 393.1,233.9 393,234.3 393,234.6 393,234.9 392.9,235.6 392.9,265.4 
		392.9,265.8 393,266.3 393,266.7 393,267.1 393.1,267.5 393.2,267.9 393.3,268.3 393.4,268.7 393.5,269 393.6,269.4 393.8,269.7 
		393.9,270 394.1,270.3 394.3,270.6 394.4,270.9 394.6,271.2 394.9,271.5 395.1,271.8 395.3,272 395.5,272.3 395.8,272.5 396,272.7 
		396.6,273.2 397.1,273.6 397.7,273.9 398.3,274.2 399,274.5 399.6,274.8 400.3,275.1 401,275.3 401.7,275.5 403.1,275.8 404.5,276 
		406,276.2 407.4,276.2 408.7,276.3 	"/>
</g>
</svg>
